<svg enable-background="new 0 0 52.9509888 45.4462891" height="291.385759" viewBox="0 0 52.9509888 45.4462891" width="343.187671" xmlns="http://www.w3.org/2000/svg"><g fill="#f47920"><path d="m25.7589111 15.1769409-.6760254.9380493c-.3790283.5409546-1.0029907.8670044-1.6660156.8670044h-6.1040039l3.1560059-4.4100342c.3840332-.5239868.9979858-.8369751 1.6459961-.8369751h14.4490356l8.3989868-11.7349853h-21.6829834c-8.3670044 0-15.1490478 6.782959-15.1490478 15.1489868 0 8.3670044 6.7820435 15.1480103 15.1490479 15.1480103l10.8239746-15.1230469z"/><path d="m52.9509888 40.5343018c0-1.1300049-.6119995-1.6309814-1.6669922-1.9279785-2.4470215-.6860352-3.5040283-.9819946-3.6890259-1.0369873-.1119995-.0370483-.2039795-.0930176-.2039795-.2410278v-1.5939942c0-.1110229.0739746-.1849976.1859741-.1849976h2.4830322c.1110229 0 .1849976.0739746.1849976.1849976v1.0380249h2.632019v-1.632019c0-1.1290283-.90802-2.0380249-2.0390015-2.0380249h-4.0770264c-1.1300049 0-2.0390015.9089966-2.0390015 2.0380249v2.7620239c0 1.1299438.6300049 1.6119995 1.7230225 1.9279785 2.2990112.6489868 3.2810059.9259644 3.5969849 1.0200195.1480103.0359497.2399902.1099854.2399902.2399902v1.723999c0 .1109619-.072998.1849976-.1849976.1849976h-2.5949707c-.1110229 0-.1849976-.0740356-.1849976-.1849976v-1.0570068h-2.632019v1.6499634c0 1.1300049.90802 2.0390015 2.0390015 2.0390015h4.1889648c1.1300049 0 2.0380249-.9089966 2.0380249-2.0390015v-2.8729858zm-17.9940186-4.9849854h3.1870117v9.8969727h2.6870117v-9.8969727h3.1879883v-2.4470215h-9.0620117zm-.9429931-2.4470215h-2.5949707v7.2280273l-4.1140137-7.2280273h-2.5950317v12.3439941h2.5950317v-7.1919556l4.1140137 7.1919556h2.5949707zm-15.3909913 3.4100342 1.1129761 4.1149902h-2.223999zm1.3540039-3.4100342h-2.7069702l-4.0400391 12.3439941h2.742981l.7410278-2.4469604h3.7999878l.7780151 2.4469604h2.742981zm-7.4249877 0h-2.6870118v12.3439941h2.6870117v-12.3439941zm-8.492981 7.9509888h1.7419434v1.7610474c0 .1109619-.0739746.1849976-.1849976.1849976h-2.742981c-.1110229 0-.1859741-.0740356-.1859741-.1849976v-7.0800171c0-.1110229.0749512-.1849976.1859741-.1849976h2.723999c.1110229 0 .1860352.0739746.1860352.1849976v1.2600098h2.6309814v-1.8540039c0-1.1290283-.9069824-2.0380249-2.0380249-2.0380249h-4.3380126c-1.1299439-.0000001-2.0379639.9089965-2.0379639 2.0380248v8.2669678c0 1.1300049.90802 2.0390015 2.0379639 2.0390015h4.3560181c1.1309814 0 2.0390015-.9089966 2.0390015-2.0390015v-4.6889648h-4.3739625z"/></g></svg>