<?xml version="1.0" encoding="utf-8"?>
<!-- Generator: Adobe Illustrator 22.0.1, SVG Export Plug-In . SVG Version: 6.00 Build 0)  -->
<svg version="1.1" id="Layer_1" xmlns="http://www.w3.org/2000/svg" xmlns:xlink="http://www.w3.org/1999/xlink" x="0px" y="0px"
	 viewBox="0 0 558 632" style="enable-background:new 0 0 558 632;" xml:space="preserve">
<style type="text/css">
	.st0{fill:#FFFFFF;}
	.st1{fill:none;}
	.st2{fill:#C4D1E5;}
	.st3{fill:#FCFCFC;}
	.st4{fill:#F7F7F7;}
	.st5{fill:#1A3B8E;}
</style>
<g>
	<path class="st0" d="M504,311l-28-23c10-26,12-51,13-61c-26-11-43-18-75-28l-20-5l16,19l1,2l-4,47v2l-3,2l-10,3l-6-5l1-1l12-5h1
		l3-38v-2l-28-33v-1l-4-4v-1h-1l-3-4l-1-1l-8-10l-1-1l-3-4l-1-1l-2-4l-1-1l-4-5l9-15l-3-3c-6.7-6.9-14.5-12.6-23-17c4-3,14-13,21-26
		c11-21,13-40,8-62l-4-12l-1,1l-11,13l-10,15c-3,3-12,9-22,20l1-5l-10,16c-7,8-12,18-17,28l-3,1l-4,1l2,2h-11l-1,3l-11-2l-1,3
		c-6-7-16-18-30-27l-3-2l-3-2l-2-1l-23-14v3c-18-6-37-8-57-8l-26,1l-5,2c-1,2,0,4,2,5l20,14l7,11c7,16,23,41,84,65
		c-3.5,8.3-5.9,17-7,26l-4-7v2l-1,1l-10,52l-90,66l22-18l55-45l5-5l8-43l-19,3c-40,11-80,24-112,37l-6,3h6c1,11,3,31,11,55l-33,28
		H10v246l13,9c26-15,96-38,96-38v35l10,7h88c26,26,50,46,52,47h16l51-45l2-2h90l10-7v-36c45,11,98,39,98,39l12-8V311H504z"/>
	<path class="st1" d="M311,103l8,3c4-3,12-10,19-21c13-18,19-37,15-57l-1-3l-4,5l-1,1l-11,14v1C333,51,310,94,311,103z"/>
	<path class="st2" d="M162,269l-38,22l69-20l2-20l-30,19C165,263,162,269,162,269z M343,84c13-18,17-38,13-58l-2-3l-2,2l1,3
		c4,20-2,39-15,57c-7,10-15,18-19,21l2,1C323,106,334,97,343,84z M335,151l45,54l14,17h1v-2l-51-68l-2-4l4-14
		c-11.5-11.2-25.6-19.4-41-24l-11-1h-6l-2,1h-1l-22,4l11,7l3,2l3,2h1c-3-5-11-13,9-16c1,0,0,0,0,0c7-1,42,14,47,27L335,151z M127,65
		c15,2,61,5,95,28c3,2,21,13,32,24c-31.3-38.8-80.6-58.5-130-52H127z M222,218l2,3c0.9,1.4,1.9,2.8,3,4c8.3,10.3,20.8,16.2,34,16
		l9-1c-11-1-16-26-17-35l-1-1c-2,27-29,20-23-46c-8,13-12,26-12,38l-1,7h-1c0.5,8.4,3.6,16.5,9,23l-1-2L222,218z M336,46l-2,2l-9,8
		c-10,9-23,25-32,45h3l1-2c6-10,19-31,27-37c0,0-19,29-20,39c2.4,0.4,4.7,1.1,7,2C310,94,333,51,336,46z M377,271l-7,4l43,19l5,2
		l1,1L377,271z M342,197l-9-12l27,50l9,3l-11-18L342,197z"/>
	<path class="st1" d="M359,163l1,1L359,163z M373,179h-1H373z M224,80l-3-2L224,80z M352,153l1,1L352,153z M355,158l2,1L355,158z"/>
	<path class="st2" d="M224,80l3,2L224,80z M221,78l-2-1L221,78z M357,159l2,4L357,159z M360,164l8,10L360,164z M353,154l2,4L353,154
		z M348,148l3,5L348,148z M209,178h1H209z M373,180l4,4L373,180z M511,303c0,0,12-44,13-68l-12-25c0,0-77-21-128-29l-26-33l7-14l2-3
		c-11-11-24-20-24-20l11-14c16-21,20-47,14-72v-1c-6-21-10-24-13-24c0,0-2,0-3,2l-19,24l-8,10l-14,12l1-4l-11,16c-8,8-15,19-21,32
		l-2,4l-11-2l-3,6l-4-4c-11.4-11.9-24.6-22-39-30c-14-9-29-15-29-15l1,3c-16-5-32-7-49-8h-2l-25,2h-4c-5,1-14,2-21,7l-2,2
		c-1,3,0,4,8,11c4,4,10,9,16,12l3,3l8,6l5,8c7,16,23,39,79,63l-1,7l-5-5v2l-2,9c-10,2-89,16-156,39l-12,26c0,0,8,46,13,64H0v258
		l26,18c0,0,52-26,85-37l-1,27l17,12h78l58,52h26l59-52h82l17-12v-28c0,0,41,12,86,38l25-18V303H511z M548,558l-12,8
		c0,0-52-28-97-39v36l-11,7h-90l-2,2l-51,45h-16c-2-1-26-21-52-47h-88l-10-7v-35c0,0-69,23-96,38l-13-9V311h37l32-28
		c-8-24-10-44-11-55l-6-1l6-2c42.8-16.1,86.5-29.5,131-40l-8,43l-5,4l-55,46l-22,18l90-66l10-48v-4h1v-1v-1v-1l4,7
		c1-9,3.3-17.7,7-26c-61-24-77-49-84-65l-7-11l-20-14c-2-1-3-3-2-5l5-2l26-1c20,0,39,2,57,8v-3l23,14l2,1l3,2l4,2c13,9,23,20,29,27
		l1-3l11,2l2-4h11l-3-2l5-1h3c4-11,10-20,16-28l10-16v4c10-11,18-17,21-19l11-15l10-14h1c1,0,3,4,4,12c5,22,4,41-7,62
		c-7,13-18,23-22,26c7,4,12,6,24,17l2,2v1l-9,15l4,5l1,1c1.4,1.6,2.7,3.3,4,5l3,3l1,2l7,9l2,1c1,1.6,2,3.3,3,5l1,1l3,3l1,2l3,4l1,1
		l23,27v3l-3,37v1l-12,5l-2,1l7,5l10-4l2-1l1-3l4-46l-2-2l-16-20l20,6c32,10,49,17,75,28c-1,10-3,34-13,61l28,23h44V558z"/>
	<path class="st2" d="M231,295c5-8,26-42,58-43c12,4,16,20,17,25h1l3-21l-1-1c-5-3-11-4-15-5h-1l-5-1h1l1-4l-12,3l-15,3l1-3
		c-14-3-15-3-25-8h-1l-1-1l-7,56H231z"/>
	<path class="st3" d="M322,253"/>
	<path class="st4" d="M277,123l-3-2L277,123z"/>
	<g>
		<path class="st5" d="M155,516l-3,23l-4-21l-14,3v37h11l-1-20l4,20h8l3-22v22h10v-45L155,516z M190,551l-1-14h7v-8h-7v-11l7-1v-8
			l-18,3l1,47h18v-8H190z M224,550h-7l-1-43l-10,1v51h18V550z M258,509l-5-4l-20,1v52l21,1l4-5v-22l-3-2l3-3V509z M244,514h2l1,1v10
			l-1,1h-2V514z M246,550h-2v-15h2l1,1v13L246,550z M272,504l-4,5v45l4,5h16l4-5l1-45l-5-4L272,504z M282,549l-1,1h-2l-1-1v-35l1-1
			h2l1,1V549z M303,505l-1,49l4,4l17,1l4-5v-48l-10-1l-1,44l-1,1h-1l-1-1v-44H303z M337,507v52h10l1-22h2l1,1v21h10v-23l-2-3l2-2
			l1-18l-4-4L337,507z M351,528h-3v-12h2l1,1V528z M386,532l-4-20l-10-1l-1,48h10v-20l5,20h10v-44l-9-2L386,532z M406,559h17v-6
			l-7-1l1-11l6,1v-6l-6-1v-9l6,2v-6l-17-5V559z"/>
	</g>
	<path class="st5" d="M313,177c-17,10-31,6-34,5v1c7,7,9,17,10,21l10-13h-6l14-8L313,177z"/>
	<g>
		<path class="st5" d="M414,199c32,10,49,18,75,28c-1,10-3,35-13,61l20,17c14-40,14-67,14-69l-10-18c-31-10-53-17-92-25L414,199z"/>
		<path class="st5" d="M193,279l6-21l5-17l10-41l1,3h1v-1l2-6c-1-12,3-25,11-38l2-4v-7h-1c-69-25-81-51-85-60l-8-13l-1-1l-9-6l-3-2
			l17-1c63,0,99,35,113,53h1l19,4l-11-7l22-4h1l2-1h6l12,1c0,0,18,4,40,24l-4,14l3,4l50,68v2h-1l-15,4l-6-3l-4-2l-3-2l-34-38v2l1,2
			l8,11v1l17,23l11,18l18,7l-4,13l-11,6l-4,3l-7,2l-3,1l-22-17l-9-6l-1-1l-3,3l-1,1v3l-34-18c-1-4,1-8,2-9l-1-1l-1-1c0,1-8,11-18,15
			c-4.4,1.9-9.2,2.6-14,2c-14-1-24-11-29-16v-1l-2-2l-1-1h-1l-1-3v6l1,1l3,4c3,4,6,7,11,10l1,1h1c10,4,11,5,25,7l-1,4l15-4l12-2
			l-1,4l4,1h1c5.6,0.8,11,2.5,16,5l5,3l2,8l2,5l1,1c1,0,20,7,34,7h3l4-1l9-4l7-3l42,25l19,12l4-1l-1-1l-21-17l-26-20l-6-5l1-1l13-5
			v-1l3-37v-3l-57-69l9-15v-1l-3-2c-6.7-6.9-14.5-12.6-23-17c4-3,14-13,21-26c11-21,13-40,8-62l-4-12h-1l-11,14l-10,15
			c-3,2-12,8-22,19l1-4l-10,16c-6,8-12,17-17,28h-3l-4,1l2,2h-11l-1,4l-11-2l-1,3c-10.2-12.2-22.4-22.7-36-31l-2-1l-23-14v3
			c-18-6-37-8-57-8l-26,1l-5,2c-1,2,0,4,2,5l20,14l7,11c7,16,23,41,84,65c-4,10-6,18-7,26l-4-7l-11,55l-90,66h6l9-5l38-22
			c0,0,3-6,2,1l31-19l-3,20l-1,8H193z M319,106l-8-3l-4-1l-3-1c0-10,20-39,20-39c-8,6-21,27-27,37l-1,2h-1h-2
			c9.4-20.6,23.4-38.8,41-53l2-2v-1l11-14l1-1l4-5l3-2l1,3c4,20,0,40-13,58c-9,13-20,22-22,23L319,106z M391,255l3-6v-1l2-5l4-7
			l-2,17l-8,3L391,255z M352,271c-14,0-27-4-29-5v-9l6,2c15,4,23,8,27,11h1L352,271z"/>
	</g>
	<path class="st5" d="M289,143l3,7l-5-4c-6-5-14-9-22-12h-7l12,8c2,2,8,8,4,11h-3l2,1l7,7c0-3,2-4,4-6l-4-4l8,5l-3,2
		c-6,8,12,16,14,6l5,1l-4,1c1,7-8,11-16,10l1,1c6,3,19-3,23-8l3-3l3,1l18-9h-2c-8,2-18,3-24,1s-15-14-16-16H289z M296,163
		c-1,1-1,2-4,2c2-1,2-3,2-4L296,163z"/>
	<g>
		<path class="st5" d="M85,405l-17-80H32v215l36-15v-83l17,76l36-11l1-182H85V405z M152,325l-15,14l-1,150l15,10l60-10l15-14l1-137
			l-16-13H152z M187,463l-4,3l-4,1l-4-3l1-109l4-2l4-1l4,3L187,463z M332,412l-10-8l10-7v-59l-16-13h-74l-1,162l40-1v-70h8l4,3v67
			l40,2L332,412z M289,390h-8v-39h8l4,3v33L289,390z M339,325v26l25,1v140l40,7l-1-146l25,1v-29H339z M487,325l1,77l-12-2l-1-75h-39
			l2,182l38,12v-87l12,3v89l38,16V325H487z"/>
	</g>
	<path class="st5" d="M285,603l-5,3l-39-36h-24c28,28,50,46,52,47h16l53-47h-9L285,603z M79,283c-8-24-10-44-11-55h-6l6-3
		c32-13,72-26,112-37l4-5c-45,9-92,21-128,33l-10,18c1,2,0,25,13,66L79,283z M155,92c43,44,67,47,78,46l-12-7h8l-4-4l11,2
		c-6-7-14-12-23-17l-27-10l3-1c-16-6-30-9-33-9H155z"/>
</g>
</svg>
