<svg xmlns="http://www.w3.org/2000/svg" viewBox="25.06 22.0 149.88 156.0" width="309.93553769042387" height="322.6477374785077">
   <path xmlns="http://www.w3.org/2000/svg" d="m51.398 159.873-9.061 17.898.312.229h4.888l1.513-3.117-.775-.557-.072-.377h5.302l-.472 3.829.315.222h4.86l1.855-17.882-.313-.245h-8.353Zm2.463 11.288h-3.025l3.418-7.05h.5l-.894 7.05h.001ZM127.384 159.873h-4.875l-5.469 17.889.323.238h4.876l5.469-17.889-.324-.238ZM146.092 159.873l-5.469 17.889.325.238h11.244l.904-2.957-.325-.237h-5.972l1.181-3.864-.889-.643-.073-.377h6.599l.841-2.753-.323-.238h-4.929l.933-3.048-.891-.642-.073-.378h7.645l.842-2.752-.325-.238h-11.245ZM142.116 160.267l-.717-.394h-11.304l-5.469 17.889.325.238h10.846l.97-.4c1.246-.508 2.109-1.371 2.433-2.426l3.833-12.538c.32-1.05.003-1.869-.917-2.369Zm-4.617 3.222-3.288 10.753c-.068.225-.17.379-.509.551l-.023.012h-2.877l3.34-10.924-.89-.641-.073-.378h4.093l.029.022c.26.192.27.373.198.605ZM108.205 159.873l-7.56 14.933h-4.407l4.493-14.695-.324-.238h-4.876l-5.47 17.889.324.238h13.959l1.513-3.117-.776-.557-.073-.377h5.302l-.471 3.829.315.222h4.859l1.856-17.882-.313-.245h-8.352.001Zm2.463 11.288h-3.025l3.418-7.05h.501l-.894 7.05ZM90.064 167.169l-.324-.238h-4.928l.932-3.048-.89-.642-.073-.378h7.644l.842-2.752-.325-.238H81.698l-5.47 17.889.324.238h11.246l.903-2.957-.323-.237h-5.973l1.18-3.864-.889-.643-.073-.377h6.6l.84-2.753ZM77.724 160.267l-.718-.394H65.702l-5.469 17.889.324.238h10.846l.97-.4c1.246-.508 2.11-1.37 2.433-2.426l3.833-12.538c.32-1.05.003-1.868-.917-2.369h.002Zm-4.618 3.222-3.289 10.753c-.068.225-.168.379-.508.551l-.023.012h-2.877l3.34-10.924-.89-.641-.074-.378h4.094l.03.022c.26.192.269.373.197.605ZM173.918 134.036l-6.136-9.508-1.488-3.866c-.809-2.077-2.33-3.232-2.836-3.615l-16.186-11.407-1.294-.59-.107-.469 14.802-17.75-.691-2.5c-.327-1.19-1.076-2.15-2.002-2.574L26.56 22l-1.5 1.926 23.301 27.876 79.98 31.9 2.065 1.843 16.082 6.026c1.042.377 1.87 1.21 2.191 2.271l.205.787-15.039 18.052-10.057-2.598-6.916-6.156-29.001-8.195-11.609-13.96-.144-.044-1.236 1.625 8.861 10.665-.308.486L29.372 80.54l-1.254 1.611 24.594 22.267 44.992 10.869.74.659-37.716-7.161-1.3 1.706 23.345 21.19 23.65-5.366.818.485 2.267 7.936 14.9 8.687.301 7.469 5.409 2.408 1.245-.192-.958-4.466 1.003-.866 5.978 2.241 4.89 4.417 1.724-.52-1.745-8.084-12.275-4.599-9.17-8.108 2.964-3.884 11.699 6.821.126 4.537 6.01 2.252-.628-2.91 1.003-.866 5.347 1.999 4.395 3.987 1.497-.452-1.595-7.393-10.591-3.355-8.849-7.825 1.985-2.584 18.812 4.345 21.31 12.633.589-.623.026-.479c.047-.897.173-3.276-.992-5.288v-.002Zm-10.673-12.035a3.008 3.008 0 0 1-1.066.203c-1.151 0-1.989-.722-2.351-1.27l-3.104-4.568.166-.218 4.747 3.345c.615.468 1.367 1.145 1.805 2.249l-.197.259Zm-40.549-27.136L69.224 76.682 54.757 59.348l1.271-1.672.288.107L70.868 75.22l49.82 17.857 2.007 1.787h.001Z" fill="#0F1432"/>
<path xmlns="http://www.w3.org/2000/svg" d="m163.441 121.742-.196.259a3.014 3.014 0 0 1-1.067.203c-1.151 0-1.989-.722-2.35-1.27l-3.105-4.568.166-.218 4.747 3.345c.615.468 1.367 1.145 1.805 2.249Zm-16.954-30.17L56.315 57.783l14.552 17.437 49.82 17.857 3.926 3.495 10.549 3.225a4.001 4.001 0 0 1 2.703 2.779l.266 1.173-6.938 8.247 2.651.685 15.039-18.052-.205-.787c-.32-1.062-1.149-1.894-2.191-2.27v-.002Z" fill="#FF001E"/>
<path xmlns="http://www.w3.org/2000/svg" d="m138.132 103.749-.253-1.124a3.997 3.997 0 0 0-2.716-2.828L76.262 81.77l11.609 13.96 29.001 8.194 6.916 6.157 7.406 1.913 6.938-8.248v.002Z" fill="#FA0"/>
</svg>