<svg enable-background="new 0 0 157.54 183.18" height="340.897254" viewBox="0 0 157.54 183.18" width="293.343519" xmlns="http://www.w3.org/2000/svg"><g fill="#e1251b"><path d="m77.99 9.9c0-5.98-4.49-9.23-11.52-9.23h-12.13v19.11h12.03c6.86 0 11.62-3.93 11.62-9.88m-18.22 6.19v-10.63c-.4-.35-1.05-.83-1.46-1.03v-.07h7.33c3.9 0 6.6 1.91 6.6 5.65 0 3.82-2.48 6.08-6.57 6.08z"/><path d="m130.29 15.96h-14.05v-2.99c-.4-.35-1.05-.83-1.46-1.03v-.07h14.87v-3.55h-13.4v-2.72c-.4-.35-1.05-.84-1.47-1.03v-.08h15.33v-3.82h-19.3v19.11h19.49v-3.82"/><path d="m87.4 9.31v-2.66h.11c.3.62 1.03 1.59 1.54 2.18l10.31 10.96h5.41v-19.12h-4.93v13h-.11c-.35-.76-.89-1.4-1.51-2.15l-9.94-10.85h-5.81v19.11h4.93z"/><path d="m14.81 16.61c-3.9 0-6.84-1.54-8.42-3.77l-3.88 2.72c1.97 3.02 6.38 4.9 12.03 4.9 6.92 0 10.85-2.37 10.85-6.62 0-3.53-2.18-5.09-7.45-5.63l-5.25-.54c-2.45-.24-3.23-.7-3.23-1.86 0-1.32 1.59-2.02 4.55-2.02 3.66 0 6.41 1.13 7.8 3.04l3.44-2.88c-2.39-2.68-6.16-3.95-10.98-3.95-6.54 0-10.25 2.26-10.25 6.06 0 3.52 2.29 5.25 6.94 5.76l5.87.65c2.26.24 3.07.73 3.07 1.91 0 1.5-1.62 2.23-5.09 2.23"/><path d="m41.53 19.78v-6.51l9.61-12.6h-5.87l-5.71 7.75c-.43.57-.54.81-.62 1.08h-.05c-.08-.27-.22-.51-.65-1.08l-5.52-7.75h-6.19l9.55 12.6v6.51z"/><path d="m147.93 19.78v-6.51l9.61-12.6h-5.87l-5.71 7.75c-.43.57-.54.81-.62 1.08h-.05c-.08-.27-.22-.51-.65-1.08l-5.52-7.75h-6.19l9.55 12.6v6.51z"/></g><path d="m78.49 183.18-32.61-65.23-.32.3c-1.11 1.03-2.28 2.07-3.45 3.1-4.24 3.72-7.6 6.35-8.53 7.06-.9.7-1.69 1.48-2.35 2.33 0 0-2.03 2.56-2.12 5.5-1.24-.17-2.41-.52-2.41-.52-.28-.11-.55-.23-.81-.36l-.04-.03c-.66-.35-1.26-.77-1.78-1.27-.54-.51-1-1.11-1.36-1.76 0 0-.05-.08-.06-.1-.01-.03-.03-.05-.04-.07-.19-.38-.35-.76-.48-1.15l-.03-.11-.03-.11c-.49-1.6-.56-3.41-.21-5.55.43-2.65 2.36-5.98 4.6-9.83 3.03-5.22 6.45-11.13 7.35-17.09l.22-1.44-1.42-.3c-1.45-.31-2.69-1.27-3.51-2.72l-.01-.03-.2-.4c-1.24-2.52-1.22-5.9.02-9.4l-28.91-57.84 60.35.03 5.77 11.48c5.23-2.09 10.53-3.15 15.78-3.15 1.57 0 3.14.1 4.65.3l.3.04h.01c.76.09 3.04.41 5.12 1.03l4.7-9.72 60.3.01z" fill="#fff"/><path d="m152.31 29.06h-53.81l-3.94 8.22c.08 0 .15.02.22.03 2.1.28 18.79 2.95 30.23 17.51 3 3.82 5.57 8.23 7.49 13.86z" fill="#e1251b"/><path d="m120.26 73.04c-.52-5.44-6.59-13.07-11.06-15.48 2.15-.65 4.76-.46 5.74-.51-8.38-9.39-19.08-9.58-25.9-8.53-4.01.62-6.66 1.71-6.66 1.71v.01c2.2-.42 4.27-.69 6.2-.81 3.8-.24 7.09.04 9.88.6 1.47.29 2.8.66 4 1.07 5.46 1.86 8.08 4.54 8.08 4.54s-3.52.11-5.86 1.5c5.09 2.72 10.84 7.2 12.88 13.21 0 0-.02 0-.06-.02-.58-.15-3.88-1.29-8.66.04 2.61 2.88 9.44 8.77 9.33 21.11l.01-.03s3.13-10.85-4.93-19.73c-.02.02 2.87-.5 7.01 1.32" fill="#e1251b"/><path d="m99.43 134.81c10.85-21.7 10.04-33.51 7.43-41.53-2.57-9.38-7.92-12.59-11.74-13.5-.17-.04-.73-.15-1.46-.2-.85-.05-1.94-.01-2.95.35-.45.16-.88.38-1.27.68-.88.68-1.57 1.54-2.04 2.22-.12.16-.25.33-.38.49-.08.09-.16.19-.24.28-3.36 3.96-8.44 6.49-8.44 6.49-4.61 2.51-9.46 2.24-12.55 1.65-1.05-.25-3.61-1.03-6.2-3.08-.33-.27-.64-.56-.93-.85-.18-.18-.35-.37-.51-.56-.08-.1-.17-.19-.25-.29-2.7-3.32-3.13-7.52-2.84-11 0 0 0 0 0-.01.01-.09.08-.68.46-1.15.06-.07.14-.14.22-.22.02-.01.03-.03.04-.03.01-.01.03-.02.04-.03.67-.49 1-.38 1.84-.78 0 0 .01-.01.01-.01 1.01-.45 1.89-1.28 2.45-2.4.06-.12.12-.24.17-.37.23-.57.35-1.16.39-1.73 0-.11.01-.22.01-.32v-.05c-.02-1.62-.81-3.1-2.15-3.84 1.13-1.98 2.68-4.22 4.68-6.04.15-.14.31-.27.47-.41.02-.02.04-.03.06-.05.01 0 .02-.01.02-.02.03-.02.06-.05.09-.07 2.19-1.9 4.76-3.29 5.9-3.87.18-.11.35-.21.53-.3-.17.02-.4.03-.57.05-2.43.32-12.92 2.22-18.07 10.96-.05.09-.1.18-.15.27 0 0 0 0-.01.01s-.02.02-.03.03c-.13.22-.31.54-.52.92-.24.43-.51.94-.79 1.48-.25.47-.5.96-.74 1.43-.24.46-.46.89-.65 1.28-.39.76-1.46 2.49-1.46 2.49-1.68 2.32-3.84 4.48-6.34 5.06-.43.1-.88.16-1.33.16-.97 0-1.75-.15-2.37-.39-.07-.03-.14-.07-.21-.11-3.2-1.8-1.69-6.31-1-7.96 0-.01.01-.02.01-.03s.01-.02.01-.03c4.76-10.34 16.33-21.45 28.98-27.77 5.35-2.68 10.88-4.5 16.18-5.04 1.64-.16 3.39-.36 5.29-.36h.02c.51 0 1.03 0 1.55.02h.11c.32 0 .63.01.95.03.18.01.37.01.55.02-5.07-1.3-14.55-1.97-25.69 3.25h-.01l-.09-.18-5.36-10.78-53.88-.02 26.5 53.02c-2.26 4.35-2.29 8.33-1.1 10.75l.17.34c.43.77 1.73 2.57 4.17 2.04.21-.04.39-.1.57-.17.13-.05.25-.1.37-.16.76-.37 1.22-.92 1.5-1.46.32-.64.41-1.26.42-1.56.57 1.56 1.02 3.3 1.33 5.07.45 2.49.63 5.03.5 7.19 0 0 2.41-4.02 2.97-8.72 0-.01 0-.03.01-.05.55-4.06.13-7.88 0-9.46-.02-.27-.03-.54-.02-.81 0-.04 0-.08 0-.12s0-.01 0-.03c0-.12-.01-.6.11-1.15s.04-.31.19-.69c.16-.43.44-.97.94-1.29.01 0 .02-.01.03-.01 0 0 1.45-.78 2.17-.3.01 0 .01 0 .02.01.14.09.3.21.46.38.02.02.04.04.06.06 0 .01.01.02.02.03.03.02.05.05.07.07.06.08.12.16.19.25v.01c.26.34.54.77.84 1.34 1.46 2.72 4.22 5.03 4.6 5.34 2.19 1.67 4.96 3.38 8.35 4.75-2.54 5.28-8.01 11.42-13.83 17.16-.15.14-.3.29-.45.43-.03.03-.05.05-.08.08-.01.01-.02.01-.02.02-5.36 5.23-10.95 10.11-15.01 13.25-1 .78-1.81 1.54-2.49 2.29 0 0-.01 0-.01.01-.18-.35-.32-.7-.41-1.07-.33-1.13-.3-2.29-.03-3.51.1-.46.19-.73.19-.73 1.62-5.49 7.48-12.35 7.25-23.61-1.42 10.86-11.07 21.57-12.02 27.37-.32 1.98-.24 3.6.17 4.95 0 .02.01.04.02.05.12.38.27.73.43 1.06.01.03.03.05.04.08s.03.05.04.08c.32.58.71 1.05 1.11 1.44.5.48 1.03.82 1.5 1.06 0 0 .01.01.02.01.24.14.49.23.69.31.22.09.41.14.54.17.01 0 .02 0 .03.01.01 0 .02 0 .03.01h.04c.04.01.06.01.06.01 0-.1.32-2.28 2.26-4.77.66-.84 1.51-1.72 2.59-2.56.88-.68 4.23-3.31 8.46-7.01 1.94-1.7 4.07-3.63 6.23-5.71l31.05 62.08zm-64.63-50.13c-.27.86-.82 1.51-1.41 1.77-.3.13-.6.17-.89.08-.86-.27-1.23-1.54-.82-2.83.04-.13.09-.25.14-.37.48-1.08 1.38-1.73 2.15-1.48.87.26 1.23 1.53.83 2.83m18.64-12.83c-.68 0-1.25-.46-1.42-1.08-.02-.07-.03-.14-.04-.22-.01-.06-.02-.13-.02-.19 0 0 0 0 0-.01 0-.81.66-1.48 1.48-1.48s1.48.67 1.48 1.49-.66 1.49-1.48 1.49" fill="#e1251b"/><path d="m88.66 125.22h-2.19l-2.63 6.11v1.38h3.01v2.1h1.81v-2.1h.98v-1.45h-.98zm-1.79 3.18v2.86h-1.57c.14-.21.24-.43.37-.78l.84-2.11c.18-.44.29-.78.37-1.16h.03c-.03.36-.04.81-.04 1.19" fill="#fff"/><path d="m76.82 129.66c.76-.4 1.09-.94 1.09-1.76v-.59c0-1.45-.98-2.3-2.57-2.3-1.56 0-2.58.9-2.58 2.34v.54c0 1.05.4 1.67 1.17 2.09-.84.33-1.3.98-1.3 1.84v.68c0 1.6 1.01 2.52 2.73 2.52 1.67 0 2.72-.97 2.72-2.54v-.64c.01-1.13-.39-1.76-1.26-2.18m-2.25-2.39c0-.68.26-.98.77-.98s.78.32.78 1v.8c0 .52-.15.84-.52 1.06l-.15-.06c-.58-.22-.87-.5-.87-1.06v-.76zm1.64 5.32c0 .69-.28 1.03-.83 1.03-.57 0-.87-.34-.87-1.05v-.94c0-.6.17-.92.62-1.16l.16.07c.68.26.91.5.91 1.15v.9z" fill="#fff"/><path d="m83.97 125.22h-5v1.56h3.19c-1.3 2.12-2.08 4.66-2.1 7.52v.51h1.92v-1.16c.01-2.64.62-5.15 1.99-7.16z" fill="#fff"/><path d="m67.87 126.52h-.15v1.78h.21c.5 0 1.01-.11 1.3-.37v6.87h1.85v-9.59h-1.49c-.26.86-.91 1.31-1.72 1.31" fill="#fff"/></svg>